<?xml version="1.0" encoding="UTF-8" standalone="no"?>
<!-- Created with Inkscape (http://www.inkscape.org/) -->

<svg
   version="1.1"
   id="svg2"
   xml:space="preserve"
   width="1333.3333"
   height="1333.3333"
   viewBox="0 0 1333.3333 1333.3333"
   sodipodi:docname="manuel_gm_ coofee_send.ai"
   xmlns:inkscape="http://www.inkscape.org/namespaces/inkscape"
   xmlns:sodipodi="http://sodipodi.sourceforge.net/DTD/sodipodi-0.dtd"
   xmlns="http://www.w3.org/2000/svg"
   xmlns:svg="http://www.w3.org/2000/svg"><defs
     id="defs6"><clipPath
       clipPathUnits="userSpaceOnUse"
       id="clipPath16"><path
         d="M 0,1000 H 1000 V 0 H 0 Z"
         id="path14" /></clipPath></defs><sodipodi:namedview
     id="namedview4"
     pagecolor="#ffffff"
     bordercolor="#666666"
     borderopacity="1.0"
     inkscape:pageshadow="2"
     inkscape:pageopacity="0.0"
     inkscape:pagecheckerboard="0" /><g
     id="g8"
     inkscape:groupmode="layer"
     inkscape:label="manuel_gm_ coofee_send"
     transform="matrix(1.3333333,0,0,-1.3333333,0,1333.3333)"><g
       id="g10"><g
         id="g12"
         clip-path="url(#clipPath16)"><g
           id="g18"
           transform="translate(805,286.1489)"><path
             d="m 0,0 c 0,-20.728 -136.646,-52.085 -305.207,-52.085 -168.561,0 -305.207,31.357 -305.207,52.085 0,20.728 136.646,22.979 305.207,22.979 C -136.646,22.979 0,20.728 0,0"
             style="fill:#cfcfcf;fill-opacity:1;fill-rule:nonzero;stroke:none"
             id="path20" /></g><g
           id="g22"
           transform="translate(864.7447,335.755)"><path
             d="m 0,0 c 0,-51.559 -163.395,-93.356 -364.952,-93.356 -201.557,0 -364.952,41.797 -364.952,93.356 0,51.559 163.395,93.356 364.952,93.356 C -163.395,93.356 0,51.559 0,0"
             style="fill:#ebebeb;fill-opacity:1;fill-rule:nonzero;stroke:none"
             id="path24" /></g><g
           id="g26"
           transform="translate(733.4099,335.755)"><path
             d="m 0,0 c 0,-33.005 -104.594,-59.76 -233.617,-59.76 -129.023,0 -233.617,26.755 -233.617,59.76 0,33.005 104.594,59.76 233.617,59.76 C -104.594,59.76 0,33.005 0,0"
             style="fill:#e0e0e0;fill-opacity:1;fill-rule:nonzero;stroke:none"
             id="path28" /></g><g
           id="g30"
           transform="translate(246.7489,564.1837)"><path
             d="m 0,0 c -19.064,0 -40.152,-4.69 -55.487,-21.15 -15.228,-16.345 -15.159,-50.274 0.165,-80.674 24.339,-48.289 77.334,-72.755 141.762,-65.44 17.694,2.008 39.789,7.494 44.564,22.225 5.437,16.768 -8.158,47.449 -37.301,84.175 C 73.338,-35.201 51.328,-13.863 44.45,-7.367 38.026,-5.24 20.144,0 0,0 m 63.326,-198.613 c -30.974,0 -58.963,6.644 -83.48,19.853 -26.929,14.508 -48.353,36.443 -61.958,63.432 -21.109,41.88 -19.187,89.016 4.675,114.628 49.418,53.044 131.79,21.776 135.273,20.418 l 2.604,-1.015 2.065,-1.885 c 1.164,-1.064 28.82,-26.422 54.698,-59.034 37.063,-46.707 51.308,-84.415 42.339,-112.076 -7.788,-24.02 -31.245,-38.414 -69.719,-42.78 -9.054,-1.028 -17.893,-1.541 -26.497,-1.541"
             style="fill:#e0e0e0;fill-opacity:1;fill-rule:nonzero;stroke:none"
             id="path32" /></g><g
           id="g34"
           transform="translate(406.2908,409.8917)"><path
             d="m 0,0 c 8.969,27.661 -5.276,65.369 -42.339,112.076 -25.878,32.611 -53.534,57.97 -54.698,59.034 l -2.065,1.885 -2.604,1.015 c -3.483,1.358 -85.855,32.626 -135.273,-20.418 -0.108,-0.116 -0.208,-0.24 -0.315,-0.356 9.015,-3.794 18.39,-8.712 27.546,-15.072 14.688,12.408 33.246,16.128 50.206,16.128 20.144,0 38.026,-5.24 44.45,-7.367 6.878,-6.496 28.888,-27.834 49.253,-53.497 29.143,-36.726 42.738,-67.407 37.301,-84.175 -4.775,-14.731 -26.87,-20.217 -44.564,-22.225 -19.334,-2.195 -37.627,-1.508 -54.437,1.806 2.37,-11.702 3.404,-22.064 3.375,-31.237 9.019,-1.276 18.339,-1.918 27.948,-1.918 8.604,0 17.443,0.513 26.497,1.541 C -31.245,-38.414 -7.788,-24.021 0,0"
             style="fill:#cfcfcf;fill-opacity:1;fill-rule:nonzero;stroke:none"
             id="path36" /></g><g
           id="g38"
           transform="translate(499.7928,620.9412)"><path
             d="m 0,0 -269.766,1.633 c 0,0 10.255,-170.943 105.702,-271.361 30.945,-32.557 95.277,-52.043 164.064,-52.043 68.787,0 133.119,19.486 164.064,52.043 C 259.511,-169.31 269.766,1.633 269.766,1.633 Z"
             style="fill:#e0e0e0;fill-opacity:1;fill-rule:nonzero;stroke:none"
             id="path40" /></g><g
           id="g42"
           transform="translate(274.1987,564.1837)"><path
             d="m 0,0 c 0,0 19.014,-10.333 31.525,-15.184 29.749,-11.535 43.451,-13.415 43.451,-13.415 0,0 -7.324,-99.053 22.293,-181.266 0,0 -79.659,74.043 -97.269,209.865"
             style="fill:#ebebeb;fill-opacity:1;fill-rule:nonzero;stroke:none"
             id="path44" /></g><g
           id="g46"
           transform="translate(538.4468,337.4681)"><path
             d="m 0,0 c -65.632,-15.377 -131.881,-10.412 -189.272,1.92 34.021,-25.391 90.621,-40.218 150.618,-40.218 68.787,0 133.119,19.486 164.064,52.043 44.187,46.488 70.113,108.09 85.219,160.85 C 181.607,102.434 121.788,28.533 0,0"
             style="fill:#cfcfcf;fill-opacity:1;fill-rule:nonzero;stroke:none"
             id="path48" /></g><g
           id="g50"
           transform="translate(769.5588,621.0213)"><path
             d="m 0,0 c 0,-48.989 -120.778,-88.702 -269.766,-88.702 -148.988,0 -269.766,39.713 -269.766,88.702 0,48.989 120.778,88.702 269.766,88.702 C -120.778,88.702 0,48.989 0,0"
             style="fill:#e0e0e0;fill-opacity:1;fill-rule:nonzero;stroke:none"
             id="path52" /></g><g
           id="g54"
           transform="translate(733.4099,621.0213)"><path
             d="m 0,0 c 0,-37.121 -104.594,-67.213 -233.617,-67.213 -129.023,0 -233.617,30.092 -233.617,67.213 0,37.121 104.594,67.213 233.617,67.213 C -104.594,67.213 0,37.121 0,0"
             style="fill:#cfcfcf;fill-opacity:1;fill-rule:nonzero;stroke:none"
             id="path56" /></g><g
           id="g58"
           transform="translate(499.7928,662.1915)"><path
             d="m 0,0 c -113.537,0 -208.142,-23.304 -229.22,-54.191 21.078,-30.888 115.683,-54.192 229.22,-54.192 113.537,0 208.142,23.304 229.22,54.192 C 208.142,-23.304 113.537,0 0,0"
             style="fill:#a66943;fill-opacity:1;fill-rule:nonzero;stroke:none"
             id="path60" /></g><g
           id="g62"
           transform="translate(499.7928,657.4601)"><path
             d="m 0,0 c -97.361,0 -179.469,-18.776 -204.995,-44.428 -2.775,-2.789 -2.775,-7.275 0,-10.065 C -179.469,-80.145 -97.361,-98.92 0,-98.92 c 97.361,0 179.469,18.775 204.995,44.427 2.775,2.79 2.775,7.276 0,10.065 C 179.469,-18.776 97.361,0 0,0"
             style="fill:#af6f47;fill-opacity:1;fill-rule:nonzero;stroke:none"
             id="path64" /></g><g
           id="g66"
           transform="translate(433.766,602.6547)"><path
             d="m 0,0 c 0,-8.037 -26.863,-14.553 -60,-14.553 -33.137,0 -60,6.516 -60,14.553 0,8.038 26.863,14.553 60,14.553 C -26.863,14.553 0,8.038 0,0"
             style="fill:#bd784d;fill-opacity:1;fill-rule:nonzero;stroke:none"
             id="path68" /></g><g
           id="g70"
           transform="translate(430.7021,636.3693)"><path
             d="m 0,0 c 0,-3.112 -10.402,-5.635 -23.234,-5.635 -12.832,0 -23.234,2.523 -23.234,5.635 0,3.112 10.402,5.635 23.234,5.635 C -10.402,5.635 0,3.112 0,0"
             style="fill:#bd784d;fill-opacity:1;fill-rule:nonzero;stroke:none"
             id="path72" /></g><g
           id="g74"
           transform="translate(438.825,556.1223)"><path
             d="m 0,0 c 19.436,-1.508 39.874,-2.314 60.968,-2.314 113.537,0 208.142,23.304 229.22,54.192 -21.078,30.888 -115.683,54.191 -229.22,54.191 -21.093,0 -41.531,-0.806 -60.967,-2.313 C 107.453,103.374 196.649,81.196 216.656,51.878 196.649,22.559 107.452,0.382 0,0"
             style="fill:#99613e;fill-opacity:1;fill-rule:nonzero;stroke:none"
             id="path76" /></g><g
           id="g78"
           transform="translate(209.0851,375.2553)"><path
             d="M 0,0 C 0,0 -86.177,-30.349 -36.925,-60.766 8,-88.511 72,-96.511 72,-96.511 c 0,0 -84.255,35.575 -83.745,55.149 0.473,18.129 45.064,27.064 45.064,27.064 0,0 -8.515,1.61 -21.319,6.894 C 3.957,-4.085 0,0 0,0"
             style="fill:#ffffff;fill-opacity:1;fill-rule:nonzero;stroke:none"
             id="path80" /></g></g></g></g></svg>
